<svg version="1.1" xmlns="http://www.w3.org/2000/svg" xmlns:xlink="http://www.w3.org/1999/xlink" x="0px" y="0px"
	 viewBox="0 0 24 24" style="enable-background:new 0 0 24 24;" xml:space="preserve">
<style type="text/css">
	.st0{fill:none;stroke:#000000;stroke-width:1.5;stroke-linecap:round;stroke-linejoin:round;stroke-miterlimit:10;}
</style>
<g>
	<g>
		<g>
			<path class="st0" d="M5,12c1.1,0.6,2.2,1.3,2.2,4.4"/>
			<path class="st0" d="M9.3,20c-1.1,0-2.2-0.4-2.2-3.6"/>
		</g>
		<g>
			<path class="st0" d="M5,12c1.1-0.6,2.2-1.3,2.2-4.4"/>
			<path class="st0" d="M9.3,4C8.3,4,7.2,4.4,7.2,7.6"/>
		</g>
	</g>
	<g>
		<g>
			<path class="st0" d="M19,12c-1.1-0.6-2.2-1.3-2.2-4.4"/>
			<path class="st0" d="M14.7,4c1.1,0,2.2,0.4,2.2,3.6"/>
		</g>
		<g>
			<path class="st0" d="M19,12c-1.1,0.6-2.2,1.3-2.2,4.4"/>
			<path class="st0" d="M14.7,20c1.1,0,2.2-0.4,2.2-3.6"/>
		</g>
	</g>
</g>
</svg>
