<svg version="1.1" xmlns="http://www.w3.org/2000/svg" xmlns:xlink="http://www.w3.org/1999/xlink" x="0px" y="0px"
	 viewBox="0 0 24 24" style="enable-background:new 0 0 24 24;" xml:space="preserve">
<style type="text/css">
	.st0{fill:none;stroke:#000000;stroke-width:1.5;stroke-linecap:round;stroke-linejoin:round;}
</style>
<g>
	<path class="st0" d="M17.049,21c0.326-0.922,0.367-1.872,0.367-2.889c0-3.43-1.998-6.45-5.026-8.205L12.388,9.91
		c0-3.369-2.089-6.189-4.89-6.909l0,0v1.75c-0.637-0.122-1.44-0.155-2.031,0.3C5.073,5.352,5.135,5.592,4.645,6.144
		C3.834,7.059,3.019,7.002,3.017,7.597c-0.002,0.614,0.358,1.32,0.956,1.685C4.63,9.681,4.999,9.325,5.74,9.78
		c0.113,0.069,0.79,0.497,0.971,1.245c0.12,0.494-0.033,0.901-0.124,1.195c-0.557,1.786-0.183,3.644-0.025,4.431
		c0.213,1.059,0.441,1.134,0.498,2.041C7.121,19.659,6.919,20.465,6.736,21H4.708"/>
	<path class="st0" d="M9.711,21h8.999c1.668-0.365,2.273-2.176,2.273-3.726c0-1.549-1.368-3.72-2.404-4.49"/>
	<path class="st0" d="M12.493,15.145c-0.453,0.384-1.673,1.251-1.568,2.595c0.11,1.416,0.669,2.331,1.618,3.26"/>
	<circle class="st0" cx="7.299" cy="6.818" r="0.125"/>
</g>
</svg>
