<svg version="1.1" xmlns="http://www.w3.org/2000/svg" xmlns:xlink="http://www.w3.org/1999/xlink" x="0px" y="0px"
	 viewBox="0 0 24 24" style="enable-background:new 0 0 24 24;" xml:space="preserve">
<style type="text/css">
	.st0{fill:none;stroke:#000000;stroke-width:1.5;stroke-linecap:round;stroke-linejoin:round;}
</style>
<g>
	<path class="st0" d="M21,10.1v6.5c0,2.2-1.8,4-4,4H7c-2.2,0-4-1.8-4-4v-6.6c0-0.9,0.5-1.8,1.3-2.3l0,0l5.2-3.3l0.9-0.5
		c1-0.6,2.2-0.6,3.2,0l0.9,0.5l5.2,3.3l0,0C20.5,8.2,21,9.1,21,10.1z"/>
	<path class="st0" d="M17.3,11.2l-4.2,2.7c-0.7,0.4-1.5,0.4-2.1,0l-4.2-2.7"/>
</g>
</svg>
