<svg version="1.1" xmlns="http://www.w3.org/2000/svg" xmlns:xlink="http://www.w3.org/1999/xlink" x="0px" y="0px"
	 viewBox="0 0 24 24" style="enable-background:new 0 0 24 24;" xml:space="preserve">
<style type="text/css">
	.st0{fill:none;stroke:#101013;stroke-width:1.5;stroke-linecap:round;stroke-linejoin:round;}
</style>
<g>
	<path class="st0" d="M12.8,19.2H7c-2.2,0-4-1.8-4-4v-7c0-1.9,1.8-3.5,3.8-3.6h10.3c2,0.1,3.8,1.6,3.8,3.6v2.9"/>
	<path class="st0" d="M17.3,9.8l-4.2,2.7c-0.7,0.4-1.5,0.4-2.1,0L6.7,9.8"/>
</g>
<g>
	<path class="st0" d="M17.9,19.2c1.7,0,3-1.3,3-3s-1.3-3-3-3
		s-3,1.3-3,3S16.2,19.2,17.9,19.2z"/>
	<path class="st0" d="M18.6,16.8l-0.8-0.4v-1.1"/>
</g>
</svg>
